<?xml version="1.0" standalone="no"?>
<!DOCTYPE svg PUBLIC "-//W3C//DTD SVG 20010904//EN"
 "http://www.w3.org/TR/2001/REC-SVG-20010904/DTD/svg10.dtd">
<svg version="1.0" xmlns="http://www.w3.org/2000/svg"
 width="250.000000pt" height="250.000000pt" viewBox="0 0 250.000000 250.000000"
 preserveAspectRatio="xMidYMid meet">
<metadata>
Created by potrace 1.14, written by Peter Selinger 2001-2017
</metadata>
<g transform="translate(0.000000,250.000000) scale(0.100000,-0.100000)"
fill="#000000" stroke="none">
<path d="M1785 2223 c-78 -41 -114 -103 -144 -251 -24 -119 -58 -206 -127
-321 -98 -165 -170 -214 -314 -215 -103 0 -172 15 -266 60 -87 41 -154 100
-249 219 -112 141 -182 188 -282 188 -85 0 -123 -38 -143 -142 -7 -38 -5 -73
11 -153 11 -57 27 -203 35 -325 21 -316 55 -437 169 -598 59 -83 169 -185 256
-236 40 -24 122 -60 183 -80 l111 -38 -3 -64 c-5 -91 3 -102 89 -116 79 -13
99 -6 99 35 0 28 -8 33 -62 42 -46 8 -55 23 -44 68 6 23 9 24 106 24 l100 0 0
-44 c0 -25 5 -48 11 -51 6 -4 46 -9 89 -12 l79 -6 7 28 c9 36 -15 55 -69 55
-33 0 -38 3 -35 21 2 18 17 25 78 40 178 45 308 145 409 317 113 190 151 416
151 902 0 181 3 251 13 263 7 11 37 21 77 28 76 11 111 34 124 77 13 45 -8 86
-63 125 -25 19 -71 55 -101 82 -75 65 -141 95 -210 95 -30 -1 -68 -8 -85 -17z"/>
</g>
</svg>
